<?xml version="1.0" encoding="UTF-8" standalone="no"?>
<!-- Created with Inkscape (http://www.inkscape.org/) -->

<svg
   version="1.1"
   id="svg148"
   width="1020.4667"
   height="274.29333"
   viewBox="0 0 1020.4667 274.29333"
   sodipodi:docname="logo.svg"
   inkscape:version="1.3.2 (091e20e, 2023-11-25, custom)"
   xmlns:inkscape="http://www.inkscape.org/namespaces/inkscape"
   xmlns:sodipodi="http://sodipodi.sourceforge.net/DTD/sodipodi-0.dtd"
   xmlns="http://www.w3.org/2000/svg"
   xmlns:svg="http://www.w3.org/2000/svg">
  <defs
     id="defs152" />
  <sodipodi:namedview
     id="namedview150"
     pagecolor="#ffffff"
     bordercolor="#666666"
     borderopacity="1.0"
     inkscape:showpageshadow="2"
     inkscape:pageopacity="0.0"
     inkscape:pagecheckerboard="0"
     inkscape:deskcolor="#d1d1d1"
     showgrid="false"
     inkscape:zoom="0.77311425"
     inkscape:cx="500.57285"
     inkscape:cy="97.656976"
     inkscape:window-width="2880"
     inkscape:window-height="1814"
     inkscape:window-x="-12"
     inkscape:window-y="-12"
     inkscape:window-maximized="1"
     inkscape:current-layer="g156">
    <inkscape:page
       x="0"
       y="0"
       id="page154"
       width="1020.4667"
       height="274.29333"
       margin="0"
       bleed="0" />
  </sodipodi:namedview>
  <g
     id="g156"
     inkscape:groupmode="layer"
     inkscape:label="Page 1"
     transform="matrix(1.3333333,0,0,-1.3333333,0,274.29333)">
    <path
       d="m 380.106,115.957 -20.365,6.504 20.365,-27.5551 20.373,27.5551 -20.373,-6.504"
       style="fill:#ffff00;fill-opacity:1;fill-rule:nonzero;stroke:none;stroke-width:0.1"
       id="path160" />
    <path
       d="m 322.012,173.565 35.582,-4.098 -59.345,36.252 z"
       style="fill:#ffff00;fill-opacity:1;fill-rule:nonzero;stroke:none;stroke-width:0.1"
       id="path162" />
    <path
       d="m 402.651,169.46 35.583,4.107 23.771,32.154 z"
       style="fill:#ffff00;fill-opacity:1;fill-rule:nonzero;stroke:none;stroke-width:0.1"
       id="path164" />
    <path
       d="m 0,120.354 h 13.1766 v 59.918 H 0 v -59.918"
       style="fill:#ffff00;fill-opacity:1;fill-rule:nonzero;stroke:none;stroke-width:0.1"
       id="path166" />
    <path
       d="m 41.8953,180.274 h 27.393 c 7.6172,0 13.5234,-2.138 17.4609,-6.075 3.3406,-3.341 5.1317,-8.045 5.1317,-13.701 v -0.169 c 0,-9.675 -5.2204,-15.75 -12.8371,-18.574 L 93.6805,120.356 H 78.2773 L 65.432,139.527 H 55.0801 V 120.356 H 41.8953 Z m 26.5301,-29.103 c 6.4226,0 10.1101,3.421 10.1101,8.472 v 0.17 c 0,5.656 -3.9378,8.56 -10.3601,8.56 H 55.0801 v -17.202 h 13.3453"
       style="fill:#ffff00;fill-opacity:1;fill-rule:nonzero;stroke:none;stroke-width:0.1"
       id="path168" />
    <path
       d="m 114.104,150.141 v 0.17 c 0,17.033 13.442,30.992 31.928,30.992 18.493,0 31.758,-13.782 31.758,-30.815 v -0.177 c 0,-17.033 -13.442,-30.984 -31.927,-30.984 -18.486,0 -31.759,13.781 -31.759,30.814 m 49.905,0 v 0.17 c 0,10.271 -7.536,18.832 -18.146,18.832 -10.619,0 -17.978,-8.383 -17.978,-18.655 v -0.177 c 0,-10.272 7.536,-18.832 18.147,-18.832 10.618,0 17.977,8.391 17.977,18.662"
       style="fill:#ffff00;fill-opacity:1;fill-rule:nonzero;stroke:none;stroke-width:0.1"
       id="path170" />
    <path
       d="m 203.2,180.274 h 12.159 l 28.071,-36.89 v 36.89 h 13.015 v -59.918 h -11.216 l -29.023,38.093 V 120.356 H 203.2 v 59.918"
       style="fill:#ffff00;fill-opacity:1;fill-rule:nonzero;stroke:none;stroke-width:0.1"
       id="path172" />
    <path
       d="m 503.81,180.272 h 13.185 v -47.936 h 29.87 V 120.354 H 503.81 v 59.918"
       style="fill:#ffff00;fill-opacity:1;fill-rule:nonzero;stroke:none;stroke-width:0.1"
       id="path174" />
    <path
       d="m 576.54,143.979 -23.028,36.292 h 15.411 l 14.298,-24.053 14.547,24.053 h 14.984 L 589.724,144.236 V 120.354 H 576.54 v 23.625"
       style="fill:#ffff00;fill-opacity:1;fill-rule:nonzero;stroke:none;stroke-width:0.1"
       id="path176" />
    <path
       d="m 633.351,180.272 h 12.152 l 28.079,-36.898 v 36.898 h 13.016 v -59.918 h -11.216 l -29.015,38.092 v -38.092 h -13.016 v 59.918"
       style="fill:#ffff00;fill-opacity:1;fill-rule:nonzero;stroke:none;stroke-width:0.1"
       id="path178" />
    <path
       d="m 749.516,180.275 -12.75,-19.429 -12.498,19.429 h -15.411 l 20.034,-29.45 -20.881,-30.476 h 14.967 l 13.532,20.543 13.434,-20.543 h 15.411 l -20.881,30.645 20.026,29.281 h -14.983"
       style="fill:#ffff00;fill-opacity:1;fill-rule:nonzero;stroke:none;stroke-width:0.1"
       id="path180" />
    <path
       d="m 203.2,23.2109 h 5.411 l 5.999,-9.65 5.998,9.65 h 5.412 V 0.391016 h -4.988 V 15.291 L 214.61,5.54297 h -0.13 l -6.359,9.65113 V 0.391016 H 203.2 V 23.2109"
       style="fill:#ffff00;fill-opacity:1;fill-rule:nonzero;stroke:none;stroke-width:0.1"
       id="path182" />
    <path
       d="m 252.751,11.7371 v 0.066 c 0,3.9098 -2.871,7.1699 -6.912,7.1699 -4.044,0 -6.846,-3.1941 -6.846,-7.1039 v -0.066 c 0,-3.91326 2.868,-7.17302 6.91,-7.17302 4.043,0 6.848,3.19375 6.848,7.10702 z m -19.007,0 v 0.066 c 0,6.4879 5.117,11.8 12.159,11.8 7.043,0 12.095,-5.25 12.095,-11.734 v -0.066 C 257.998,5.31484 252.88,0 245.839,0 238.795,0 233.744,5.24883 233.744,11.7371"
       style="fill:#ffff00;fill-opacity:1;fill-rule:nonzero;stroke:none;stroke-width:0.1"
       id="path184" />
    <path
       d="m 270.057,18.582 h -6.943 v 4.6289 h 18.909 V 18.582 h -6.945 V 0.391016 h -5.021 V 18.582"
       style="fill:#ffff00;fill-opacity:1;fill-rule:nonzero;stroke:none;stroke-width:0.1"
       id="path186" />
    <path
       d="m 306.146,11.7371 v 0.066 c 0,3.9098 -2.87,7.1699 -6.912,7.1699 -4.043,0 -6.846,-3.1941 -6.846,-7.1039 v -0.066 c 0,-3.91326 2.868,-7.17302 6.91,-7.17302 4.043,0 6.848,3.19375 6.848,7.10702 z m -19.007,0 v 0.066 c 0,6.4879 5.117,11.8 12.159,11.8 7.043,0 12.095,-5.25 12.095,-11.734 v -0.066 C 311.393,5.31484 306.276,0 299.234,0 292.191,0 287.139,5.24883 287.139,11.7371"
       style="fill:#ffff00;fill-opacity:1;fill-rule:nonzero;stroke:none;stroke-width:0.1"
       id="path188" />
    <path
       d="m 329.226,12.1281 c 2.443,0 3.844,1.3051 3.844,3.2289 v 0.0621 c 0,2.1528 -1.498,3.2629 -3.945,3.2629 h -4.986 v -6.5539 z m -10.108,11.0828 h 10.433 c 2.9,0 5.152,-0.8129 6.651,-2.314 1.27,-1.2699 1.955,-3.0629 1.955,-5.2149 v -0.066 c 0,-3.6851 -1.986,-5.99998 -4.89,-7.07616 l 5.575,-8.148824 h -5.869 l -4.889,7.305074 h -3.945 V 0.391016 h -5.021 V 23.2109"
       style="fill:#ffff00;fill-opacity:1;fill-rule:nonzero;stroke:none;stroke-width:0.1"
       id="path190" />
    <path
       d="m 344.378,3.71719 2.969,3.55273 c 2.052,-1.69492 4.205,-2.77187 6.813,-2.77187 2.052,0 3.291,0.81679 3.291,2.15312 v 0.06485 c 0,1.26992 -0.782,1.925 -4.595,2.9 -4.598,1.17698 -7.564,2.44688 -7.564,6.98008 v 0.0648 c 0,4.1391 3.325,6.8789 7.986,6.8789 3.325,0 6.163,-1.0449 8.478,-2.9027 l -2.609,-3.782 c -2.021,1.4008 -4.01,2.2488 -5.931,2.2488 -1.924,0 -2.934,-0.8789 -2.934,-1.9891 V 17.052 c 0,-1.5008 0.975,-1.9891 4.92,-3 4.63,-1.2071 7.239,-2.868 7.239,-6.84809 V 7.13906 c 0,-4.53008 -3.457,-7.0730444 -8.381,-7.0730444 -3.453,0 -6.941,1.2039044 -9.682,3.6511744"
       style="fill:#ffff00;fill-opacity:1;fill-rule:nonzero;stroke:none;stroke-width:0.1"
       id="path192" />
    <path
       d="m 379.064,11.7031 c 2.509,0 3.976,1.502 3.976,3.4571 v 0.0648 c 0,2.25 -1.565,3.457 -4.073,3.457 h -3.882 v -6.9789 z m -9,11.5078 h 9.325 c 5.447,0 8.738,-3.225 8.738,-7.889 v -0.066 c 0,-5.27973 -4.108,-8.01684 -9.226,-8.01684 h -3.816 V 0.391016 h -5.021 V 23.2109"
       style="fill:#ffff00;fill-opacity:1;fill-rule:nonzero;stroke:none;stroke-width:0.1"
       id="path194" />
    <path
       d="m 413.098,11.7371 v 0.066 c 0,3.9098 -2.869,7.1699 -6.911,7.1699 -4.042,0 -6.847,-3.1941 -6.847,-7.1039 v -0.066 c 0,-3.91326 2.868,-7.17302 6.913,-7.17302 4.042,0 6.845,3.19375 6.845,7.10702 z m -19.008,0 v 0.066 c 0,6.4879 5.122,11.8 12.163,11.8 7.042,0 12.094,-5.25 12.094,-11.734 v -0.066 C 418.347,5.31484 413.229,0 406.187,0 399.145,0 394.09,5.24883 394.09,11.7371"
       style="fill:#ffff00;fill-opacity:1;fill-rule:nonzero;stroke:none;stroke-width:0.1"
       id="path196" />
    <path
       d="m 436.178,12.1281 c 2.446,0 3.847,1.3051 3.847,3.2289 v 0.0621 c 0,2.1528 -1.498,3.2629 -3.945,3.2629 h -4.989 V 12.1281 Z M 426.07,23.2109 h 10.433 c 2.903,0 5.152,-0.8129 6.65,-2.314 1.274,-1.2699 1.959,-3.0629 1.959,-5.2149 v -0.066 c 0,-3.6851 -1.99,-5.99998 -4.889,-7.07616 l 5.574,-8.148824 h -5.868 l -4.894,7.305074 h -3.944 V 0.391016 H 426.07 V 23.2109"
       style="fill:#ffff00;fill-opacity:1;fill-rule:nonzero;stroke:none;stroke-width:0.1"
       id="path198" />
    <path
       d="m 458.213,18.582 h -6.946 v 4.6289 h 18.911 V 18.582 h -6.945 V 0.391016 h -5.02 V 18.582"
       style="fill:#ffff00;fill-opacity:1;fill-rule:nonzero;stroke:none;stroke-width:0.1"
       id="path200" />
    <path
       d="m 490.32,23.2109 h 5.022 V 4.95508 h 11.38 V 0.391016 H 490.32 V 23.2109"
       style="fill:#ffff00;fill-opacity:1;fill-rule:nonzero;stroke:none;stroke-width:0.1"
       id="path202" />
    <path
       d="m 526.864,9.94492 -3.031,7.39808 -3.031,-7.39808 z m -5.28,13.42888 h 4.63 l 9.778,-22.982784 h -5.249 l -2.087,5.117964 h -9.65 l -2.087,-5.117964 h -5.117 l 9.782,22.982784"
       style="fill:#ffff00;fill-opacity:1;fill-rule:nonzero;stroke:none;stroke-width:0.1"
       id="path204" />
    <path
       d="m 553.626,4.79219 c 2.218,0 3.554,0.78281 3.554,2.47773 v 0.06602 c 0,1.5332 -1.143,2.47695 -3.717,2.47695 h -5.803 v -5.0207 z m -1.336,9.19371 c 2.215,0 3.616,0.7172 3.616,2.4121 v 0.0661 c 0,1.498 -1.173,2.3461 -3.291,2.3461 h -4.955 v -4.8243 z m -9.523,9.225 h 10.599 c 2.606,0 4.661,-0.716 5.966,-2.0199 1.041,-1.0422 1.563,-2.3148 1.563,-3.8789 v -0.066 c 0,-2.5742 -1.37,-4.0109 -3,-4.9242 2.641,-1.0098 4.271,-2.54299 4.271,-5.60588 V 6.65117 c 0,-4.17304 -3.388,-6.260154 -8.54,-6.260154 H 542.767 V 23.2109"
       style="fill:#ffff00;fill-opacity:1;fill-rule:nonzero;stroke:none;stroke-width:0.1"
       id="path206" />
  </g>
</svg>
